<svg xmlns="http://www.w3.org/2000/svg" width="1440" height="720" viewBox="0 0 1440 720">
  <defs>
    <linearGradient id="g" x1="0" y1="0" x2="1" y2="1">
      <stop offset="0" stop-color="#0b0b0c"/>
      <stop offset="1" stop-color="#101018"/>
    </linearGradient>
    <radialGradient id="glow" cx="50%" cy="40%" r="60%">
      <stop offset="0" stop-color="#8ab4ff" stop-opacity="0.35"/>
      <stop offset="1" stop-color="#8ab4ff" stop-opacity="0"/>
    </radialGradient>
  </defs>
  <rect width="1440" height="720" fill="url(#g)"/>
  <circle cx="720" cy="320" r="380" fill="url(#glow)"/>
  <g stroke="#283046" stroke-width="1">
    <path d="M120 480h1200M120 540h1200M120 600h1200" opacity=".5"/>
    <path d="M180 140h300v180H180zM540 180h280v140H540zM860 220h400v100H860z" fill="none"/>
  </g>
  <g fill="#8ab4ff" opacity=".8">
    <circle cx="220" cy="260" r="3"/><circle cx="290" cy="220" r="3"/><circle cx="380" cy="300" r="3"/>
    <circle cx="560" cy="240" r="3"/><circle cx="680" cy="230" r="3"/><circle cx="780" cy="270" r="3"/>
    <circle cx="980" cy="260" r="3"/><circle cx="1120" cy="260" r="3"/><circle cx="1220" cy="260" r="3"/>
  </g>
</svg>
